<svg aria-hidden="true" style="position: absolute; width: 0; height: 0; overflow: hidden;" version="1.1" xmlns="http://www.w3.org/2000/svg" xmlns:xlink="http://www.w3.org/1999/xlink">
<defs>
<symbol id="icon-person-black-18dp-1" viewBox="0 0 24 24">
<path fill="#2196f3" style="fill: var(--color1, #2196f3)" d="M12 12c2.21 0 4-1.79 4-4s-1.79-4-4-4c-2.21 0-4 1.79-4 4s1.79 4 4 4zM12 14c-2.67 0-8 1.34-8 4v1c0 0.55 0.45 1 1 1h14c0.55 0 1-0.45 1-1v-1c0-2.66-5.33-4-8-4z"></path>
</symbol>
<symbol id="icon-Vector-2" viewBox="0 0 32 24">
<path d="M28 0h-24c-1.65 0-2.985 1.35-2.985 3l-0.015 18c0 1.65 1.35 3 3 3h24c1.65 0 3-1.35 3-3v-18c0-1.65-1.35-3-3-3zM27.4 6.375l-10.605 6.63c-0.48 0.3-1.11 0.3-1.59 0l-10.605-6.63c-0.375-0.24-0.6-0.645-0.6-1.080 0-1.005 1.095-1.605 1.95-1.080l10.050 6.285 10.050-6.285c0.855-0.525 1.95 0.075 1.95 1.080 0 0.435-0.225 0.84-0.6 1.080z"></path>
</symbol>
<symbol id="icon-Vector" viewBox="0 0 24 24">
<path d="M20.565 15.639l-3.151-0.36c-0.757-0.087-1.501 0.174-2.035 0.707l-2.283 2.283c-3.511-1.786-6.389-4.652-8.175-8.175l2.295-2.295c0.533-0.533 0.794-1.278 0.707-2.035l-0.36-3.126c-0.149-1.253-1.203-2.196-2.469-2.196h-2.146c-1.402 0-2.568 1.166-2.481 2.568 0.658 10.595 9.131 19.056 19.713 19.713 1.402 0.087 2.568-1.079 2.568-2.481v-2.146c0.012-1.253-0.931-2.307-2.183-2.456z"></path>
</symbol>
</defs>
</svg>
